<?xml version="1.0" standalone="no"?>
<!DOCTYPE svg PUBLIC "-//W3C//DTD SVG 20010904//EN"
 "http://www.w3.org/TR/2001/REC-SVG-20010904/DTD/svg10.dtd">
<svg version="1.0" xmlns="http://www.w3.org/2000/svg"
 width="200.000000pt" height="200.000000pt" viewBox="0 0 200.000000 200.000000"
 preserveAspectRatio="xMidYMid meet">

<g transform="translate(0.000000,200.000000) scale(0.100000,-0.100000)"
fill="#000000" stroke="none">
<path d="M0 1000 l0 -1000 1000 0 1000 0 0 1000 0 1000 -1000 0 -1000 0 0
-1000z m1293 158 c237 -158 287 -195 285 -212 -2 -15 -85 -76 -283 -208 -154
-104 -287 -188 -295 -188 -8 0 -141 84 -295 187 -229 154 -280 192 -280 211 0
18 52 57 284 212 157 105 287 190 290 190 3 0 135 -86 294 -192z"/>
<path d="M725 1104 l-200 -134 118 0 117 0 86 131 c47 72 84 132 82 134 -2 1
-93 -58 -203 -131z"/>
<path d="M887 1096 c-49 -80 -87 -150 -85 -154 2 -4 41 -70 88 -147 l85 -140
3 148 c1 81 1 213 0 293 l-3 146 -88 -146z"/>
<path d="M1020 952 c0 -160 2 -292 5 -292 2 0 43 65 91 145 l86 144 -77 128
c-43 70 -84 137 -92 148 -11 16 -13 -25 -13 -273z"/>
<path d="M1071 1233 c2 -6 40 -66 84 -136 l80 -126 119 -1 c66 0 117 2 115 4
-24 20 -400 265 -398 259z"/>
<path d="M536 921 c8 -8 352 -237 384 -256 13 -8 13 -5 -1 15 -9 14 -49 76
-88 138 l-73 112 -116 0 c-67 0 -112 -4 -106 -9z"/>
<path d="M1217 893 c-13 -21 -49 -76 -79 -123 -75 -117 -74 -115 -57 -105 32
19 375 248 384 256 5 5 -41 9 -108 9 l-117 0 -23 -37z"/>
</g>
</svg>
